<svg xmlns="http://www.w3.org/2000/svg" width="69.61" height="81.794" viewBox="0 0 69.61 81.794">
  <g>
    <path d="M526.05,209.13c-.01-.11-.03-.22-.04-.33a.487.487,0,0,0-.01-.12.772.772,0,0,0-.02-.15.4.4,0,0,0-.03-.15,1.318,1.318,0,0,0-.05-.26.142.142,0,0,0-.02-.06c-.02-.1-.04-.2-.07-.3-.01-.02-.01-.03-.02-.05a.145.145,0,0,0-.02-.07c-.01-.02-.02-.05-.03-.07-.03-.1-.06-.19-.1-.29a1.6,1.6,0,0,0-.12-.27,2.1,2.1,0,0,0-.13-.26c0-.02-.01-.03-.03-.05a.913.913,0,0,0-.08-.13,1.059,1.059,0,0,0-.12-.2,2.426,2.426,0,0,0-.14-.2l-.12-.15a.251.251,0,0,1-.04-.07.462.462,0,0,0-.07-.07,1.123,1.123,0,0,0-.18-.2.912.912,0,0,0-.17-.17c-.01-.01-.02-.03-.04-.04a1.5,1.5,0,0,0-.13-.11,1.063,1.063,0,0,0-.11-.09.462.462,0,0,0-.07-.07h-.01a.01.01,0,0,0-.01-.01.1.1,0,0,0-.05-.04,2.028,2.028,0,0,0-.18-.13.01.01,0,0,1-.01-.01c-.1-.06-.2-.12-.31-.18-.01,0-.01-.01-.02-.01a4.694,4.694,0,0,0-3.01-.54,6.936,6.936,0,0,0-5.59,6.8,5.492,5.492,0,0,0,1.52,3.91,4.558,4.558,0,0,0,.96.74c.04.02.07.04.11.06a1.505,1.505,0,0,0,.22.11,2.718,2.718,0,0,0,.25.11,1.667,1.667,0,0,0,.2.08,3.374,3.374,0,0,0,.34.1c.01.01.03.01.04.02a.127.127,0,0,1,.06.01c.04.01.08.02.11.03h.04c.06.01.13.03.2.04.04,0,.07.01.1.01a.088.088,0,0,0,.07.01,1.628,1.628,0,0,0,.31.03.277.277,0,0,0,.09.01h.14c.13,0,.26,0,.4-.01a2.934,2.934,0,0,0,.41-.03c.13-.02.26-.04.39-.07s.24-.07.35-.1a.355.355,0,0,1,.1-.02.578.578,0,0,0,.14-.05,1.536,1.536,0,0,0,.3-.11c.1-.03.2-.08.3-.12l.06-.03a1.91,1.91,0,0,0,.28-.15c.01-.01.03-.01.04-.02.11-.06.22-.13.34-.2a1.665,1.665,0,0,0,.28-.18c.1-.07.2-.15.3-.23a4.467,4.467,0,0,0,.41-.35,1.814,1.814,0,0,0,.24-.24,3.07,3.07,0,0,0,.25-.26c.02-.02.04-.05.06-.07.09-.11.19-.23.28-.35a5.453,5.453,0,0,0,.4-.58c.06-.1.12-.2.17-.3.01-.01.01-.01.01-.02a.138.138,0,0,0,.05-.09l.01-.01c0-.01.01-.03.01-.04s.01-.01.01-.02a1.091,1.091,0,0,0,.06-.11c.05-.11.11-.21.16-.32a.689.689,0,0,0,.03-.08,1.877,1.877,0,0,0,.12-.3c.05-.14.1-.28.14-.42a1.027,1.027,0,0,0,.07-.25,4.875,4.875,0,0,0,.12-.52c.02-.1.03-.21.04-.31a4.573,4.573,0,0,0,.05-.52,2.174,2.174,0,0,0,.02-.36C526.06,209.38,526.06,209.25,526.05,209.13Zm-3.27.29c-.02.12-.06.22-.09.34a5.107,5.107,0,0,1-.18.64c-.02.05-.04.09-.06.14a5.416,5.416,0,0,1-.35.73,1.858,1.858,0,0,1-.11.19c-.13.21-.27.4-.41.59-.05.06-.09.12-.14.17a7.11,7.11,0,0,1-.6.63,1.7,1.7,0,0,0-.14.1c-.18.15-.36.28-.55.41-.11.07-.23.13-.34.19-.17.09-.35.18-.54.26-.07.03-.15.06-.23.09a5.026,5.026,0,0,1-.85.21,4.879,4.879,0,0,1-.76.03,1.641,1.641,0,0,1-.23-.02c-.09-.01-.16-.03-.25-.04a4.576,4.576,0,0,1-1.15-3.12,5.82,5.82,0,0,1,4.69-5.72,4.4,4.4,0,0,1,1.26.03,4.657,4.657,0,0,1,1.13,3.13A5.689,5.689,0,0,1,522.78,209.42Z" transform="translate(-501.11 -172.8)"/>
    <path d="M570.46,186.11l-1.99-1.09.02-10.56a.4.4,0,0,0-.23-.38h.03l-2.28-1.24H566a.488.488,0,0,1-.07-.03.86.86,0,0,0-.16-.01l-64.09,9.01a.647.647,0,0,0-.13.04c-.01.01-.02.01-.03.02s-.01,0-.02.01a.035.035,0,0,0-.02.01c-.02.01-.04.03-.06.04a.176.176,0,0,1-.04.05.01.01,0,0,0-.01.01V182c-.01.01-.02.01-.03.02l-.03.06a.212.212,0,0,0-.03.07.477.477,0,0,0-.04.2l-.13,69.16a.423.423,0,0,0,.21.39l2.25,1.22,2.28,1.24a.366.366,0,0,0,.23.04l6.85-.96h.01l2.04,1.11c-.03-.02-.06-.05-.09-.07a.4.4,0,0,0,.33.11l6.73-.95a.534.534,0,0,0,.35-.23.575.575,0,0,0,.08-.42c-.06-.28-.12-.57-.17-.86l25.99-3.65h.01l1.93,1.05a.387.387,0,0,0,.24.05l15.54-2.2a.555.555,0,0,0,.44-.52c.02-.31.02-.62.02-.93l3.78-.53a.56.56,0,0,0,.45-.55l.11-58.34A.408.408,0,0,0,570.46,186.11Zm-64.31,37.75a1.173,1.173,0,0,0-.11-.05,2.094,2.094,0,0,0-.23-.08.142.142,0,0,0-.06-.02c-.03-.01-.06-.01-.09-.02-.11-.02-.23-.04-.35-.05h-.15a2.516,2.516,0,0,0-.54.03c-.09.01-.19.03-.29.05l.05-25.13,1.73.94c-.01-.01-.01-.02-.02-.03a.379.379,0,0,0,.26.07c.03,0,1.04-.15,2.59-.36,3.64-.52,10.25-1.47,14.16-2.18l.11-.02c2.57-.45,4.44-.86,5.09-1.92a1.391,1.391,0,0,0,.16-1.14,1.084,1.084,0,0,0-.58-.76.06.06,0,0,1,.04.01l-2.28-1.24c-.01-.01-.03-.01-.04-.02a2.152,2.152,0,0,0-.27-.1.277.277,0,0,0-.09-.01l-.16-.03-.34-.03h-.2c-.13,0-.27.01-.42.01-.06.01-.12.01-.19.02-.2.01-.41.03-.64.05-.28.02-.59.05-.92.08l-.56.04c-.28.03-.57.05-.86.06a2.437,2.437,0,0,1-.27.01c-.23.01-.46.02-.7.02a2.62,2.62,0,0,1-.28-.01,6.686,6.686,0,0,1-.99-.07.127.127,0,0,1-.06-.01,7.047,7.047,0,0,1-.98-.19c-.13-.03-.26-.07-.39-.1-.18-.06-.37-.11-.55-.18-.15-.05-.3-.11-.45-.17-.19-.08-.39-.16-.59-.25s-.37-.18-.57-.28l-.75-.41c-.1-.06-.2-.11-.3-.16-.2-.1-.41-.18-.62-.26-.08-.03-.15-.07-.22-.09a8.565,8.565,0,0,0-.98-.31c-.02-.01-.05-.01-.08-.02-.08-.02-.16-.03-.24-.05a8.09,8.09,0,0,0-.83-.16c-.12-.02-.23-.04-.34-.05q-.4-.06-.78-.09a2.642,2.642,0,0,1-.29-.02q-.525-.03-1.02-.03h-.15c-.29,0-.56.01-.83.02-.11.01-.2.01-.3.02-.22.01-.44.03-.65.05-.08.01-.17.01-.25.02-.27.03-.53.06-.77.1-.57.08-1.03.17-1.32.22l.01-5.63,60.91-8.56,2.28-.32-.02,10.07c-.09.09-.17.18-.25.27-.12.14-.22.28-.33.42-.13.16-.26.32-.39.49-.04.06-.1.12-.14.18-.11.16-.19.32-.29.48-.13.19-.26.39-.37.59a1.739,1.739,0,0,0-.11.18,9.2,9.2,0,0,0-.4.84.3.3,0,0,0-.04.08,1.667,1.667,0,0,0-.08.2c-.07.15-.13.3-.19.46-.1.27-.19.55-.27.83-.11.04-.25.08-.41.14a.88.88,0,0,0-.15.05c-.13.05-.28.1-.44.16-.06.02-.11.04-.18.07-.22.08-.45.18-.71.28-.05.02-.1.05-.15.07-.21.09-.43.19-.66.29-.05.03-.09.04-.14.07a.251.251,0,0,0-.07.04c-.42.19-.86.42-1.3.67a1.14,1.14,0,0,0-.19.1c-.45.26-.91.54-1.36.85a1.054,1.054,0,0,0-.11.07,1.7,1.7,0,0,0-.14.1c-.15.11-.3.21-.44.32-.12.09-.23.18-.34.27-.15.11-.29.24-.44.36-.08.07-.16.13-.24.2l-.06.06c-.31.29-.62.59-.91.91-.02.03-.05.05-.07.08-.05.05-.09.12-.14.17-.17.2-.33.41-.49.62-.04.06-.09.11-.13.17l-.09.15c-.13.19-.25.38-.36.58-.05.08-.1.15-.14.23s-.09.16-.13.24c-.1.24-.2.48-.29.72a2.457,2.457,0,0,0-.09.29c-.05.15-.1.3-.14.45a6.7,6.7,0,0,0-.19.74c-.04.15-.07.3-.1.45-.04.26-.08.53-.11.8-.01.13-.03.25-.04.38-.02.4-.03.79-.02,1.18-.11.02-.25.05-.41.08-.05.01-.1.03-.15.04-.12.02-.24.05-.37.08-.07.02-.14.03-.22.05-.13.03-.27.07-.41.1l-.24.06c-.17.05-.34.1-.52.15-.07.02-.13.03-.21.06-.25.07-.5.15-.77.23a.88.88,0,0,1-.15.05c-.22.08-.44.15-.67.23-.09.04-.19.07-.28.11-.19.07-.38.14-.57.22-.11.04-.21.09-.32.13-.19.08-.38.17-.57.26-.07.03-.14.06-.22.09a.435.435,0,0,1-.07.04c-.35.16-.7.34-1.04.53-.07.04-.14.09-.21.13a10.4,10.4,0,0,0-.9.56c-.04.03-.08.05-.12.08-.02,0-.03.02-.04.02-.36.26-.71.53-1.04.82a1.063,1.063,0,0,0-.11.09c-.04.03-.06.06-.1.09-.19.19-.38.38-.56.57-.04.05-.09.08-.12.12s-.05.05-.07.08c-.19.23-.37.45-.53.68-.01.01-.01.02-.02.03-.18.26-.33.51-.47.76v.01a7.65,7.65,0,0,0-.4.89c-.02.03-.03.07-.05.1-.02.06-.04.13-.06.2l-.15.48c-.03.11-.05.21-.08.31-.04.17-.07.33-.1.49-.02.1-.04.2-.05.29-.03.18-.06.37-.08.55-.01.07-.02.15-.03.22l-.09.75-.04.37a1.816,1.816,0,0,1-.09.43.578.578,0,0,1-.05.14.01.01,0,0,0-.01.01,1.431,1.431,0,0,1-.11.15c-.01,0-.01.01-.02.02-.04.04-.1.08-.16.13-.03.02-.07.03-.1.05a.8.8,0,0,1-.16.08,1.447,1.447,0,0,1-.25.1c-.05.02-.09.03-.14.05-.15.04-.32.09-.52.13s-.39.1-.59.15a1.332,1.332,0,0,0-.19.05c-.15.04-.29.08-.44.13a1.555,1.555,0,0,0-.23.08,4.434,4.434,0,0,0-.43.15l-.24.09c-.15.06-.31.13-.46.2a1.22,1.22,0,0,0-.17.07.076.076,0,0,1-.04.02q-.345.165-.69.36a.3.3,0,0,0-.07.05c-.21.11-.41.24-.61.37a.423.423,0,0,1-.07.05.572.572,0,0,0-.08.07,7.372,7.372,0,0,0-.9.71c-.01.01-.02.01-.03.02l-.01.01c-.26.23-.51.49-.76.76-.03.04-.06.06-.09.1a1.059,1.059,0,0,1-.1.12c-.21.25-.41.51-.61.78-.03.04-.06.07-.09.11-.01.02-.02.03-.03.05l-.12.18c-.12.18-.24.37-.35.56-.06.09-.11.18-.16.27l-.15.27a1.627,1.627,0,0,0-.11.23c-.09.17-.18.35-.26.53-.08.15-.15.31-.22.48-.08.19-.16.38-.24.59-.04.1-.08.19-.12.3-.05.15-.11.31-.16.46-.07.19-.13.35-.19.5a.142.142,0,0,0-.02.06c-.06.14-.13.26-.19.37a.351.351,0,0,1-.05.08,1.949,1.949,0,0,1-.18.26.932.932,0,0,1-.22.19.917.917,0,0,1-.36.13,2.01,2.01,0,0,1-.54-.02c-.05-.01-.1-.01-.16-.02-.2-.04-.41-.08-.65-.14-.18-.05-.36-.1-.56-.15a3.038,3.038,0,0,0-.4-.12c-.07-.02-.14-.03-.21-.05a2.931,2.931,0,0,0-.29-.05c-.15-.03-.3-.05-.45-.07l-.28-.03c-.17-.01-.34-.01-.51-.01h-.24c-.25.01-.5.03-.74.06a7.873,7.873,0,0,0-1.07.24c-.06.02-.12.03-.17.05a7.594,7.594,0,0,0-1,.38c-.03.02-.06.02-.09.04-.06.03-.12.06-.19.1-.11.05-.21.11-.32.16s-.21.13-.32.19-.21.13-.31.2c-.04.03-.09.05-.13.08s-.07.06-.1.08a8.3,8.3,0,0,0-.8.64c-.01,0-.02.01-.03.02a.01.01,0,0,0-.01.01,7.4,7.4,0,0,0-.57.55c-.16.17-.32.31-.48.45a2.915,2.915,0,0,1-.29.23c-.09.07-.19.15-.28.21s-.19.11-.29.17-.18.1-.27.14a3.552,3.552,0,0,0-1.54-1.2c.05.02.11.04.16.06a2,2,0,0,1,.21.1L514.3,226a1.091,1.091,0,0,0-.11-.06.418.418,0,0,1-.1-.04c-.12-.05-.25-.1-.38-.14a.539.539,0,0,0-.1-.03c-.03-.01-.07-.01-.1-.02a2.654,2.654,0,0,0-.42-.06,1.355,1.355,0,0,0-.2-.02,4.233,4.233,0,0,0-.7.03,5.013,5.013,0,0,0-.79.19l-.12.03a8.033,8.033,0,0,0-.86.34c-.03.01-.05.02-.08.03-.09.05-.18.09-.27.13-.12.07-.21.12-.32.18a3.115,3.115,0,0,0-1.28-1.44l-2.24-1.22A.3.3,0,0,0,506.15,223.86Zm.65-25.31.01-6.79c.27-.05.65-.12,1.13-.19,2.05-.29,5.77-.51,8.42,1.05a11.429,11.429,0,0,0,7.67,1.55l.56-.03c.33-.03.65-.06.94-.08,1.32-.13,1.96-.17,2.07.27a.32.32,0,0,1-.02.3c-.44.73-2.82,1.15-4.4,1.43l-.11.02c-3.92.71-10.56,1.67-14.18,2.18Zm8.9,55.01.04-.52.07-.96.05-.59.07-.98.12-1.57.02-.3a6.277,6.277,0,0,0-1.7-5.33,3.38,3.38,0,0,1-.89-3.53c.16-.38.35-.53.4-.54.51.04,1.32.34,2.5,2.44a2.624,2.624,0,0,0,2.57,1.6,3.05,3.05,0,0,0,2.2-1.84c.91-1.83,2.26-3.1,3-3.21.04,0,.08-.01.12-.01.6.02.69.17.71.2s.06.2-.23.74a15.233,15.233,0,0,1-1.1,1.54c-1.03,1.35-2.32,3.03-2.53,4.43a25.306,25.306,0,0,0-.17,3.12c0,.52.02,1.04.07,1.55.01.32.04.64.08.95a5.542,5.542,0,0,0,.07.57c.03.32.08.63.14.94.03.17.06.33.09.5Zm49.79-7.08-14.39,2.04a4.244,4.244,0,0,0,.17-.47,9.9,9.9,0,0,0,.31-1c.05-.19.1-.39.14-.6a7.973,7.973,0,0,0,.14-.98v-.01a5.284,5.284,0,0,0-.09-1.54,3.193,3.193,0,0,0-1.34-2.08,9.8,9.8,0,0,1-2.3-1.95,3.208,3.208,0,0,0-.92-.82,13.86,13.86,0,0,0-3.41-.89c-1.92-.38-4.3-.84-5.21-1.51-1.68-1.22-1.67-1.54-1.38-2.47a.477.477,0,0,1,.2-.26,1.637,1.637,0,0,1,.25-.07,5.206,5.206,0,0,1,2.77.84,21.43,21.43,0,0,0,7.44,1.69q.42-.015.78-.06a2.467,2.467,0,0,0,1.94-1.09,2.826,2.826,0,0,0-.27-2.79c-.2-.37-.37-.72-.53-1.03-.8-1.57-1.2-2.36-2.37-2.9a6.393,6.393,0,0,1-3.33-3.64c-.19-.75-.03-1.21.19-1.4a.477.477,0,0,1,.24-.11.446.446,0,0,1,.28.06,23.781,23.781,0,0,0,3.54,2.7,4.673,4.673,0,0,1,.67.34,3.033,3.033,0,0,0,2.09.53c1.64-.23,1.66-1.2,1.74-5.3.13-5.94.86-6.44.94-6.48a.732.732,0,0,1,.16-.04.267.267,0,0,1,.21.04c.23.15.73.88.67,4.31-.1,5.12-.05,9.23,1.56,11.58a10.537,10.537,0,0,1,1.18,2.42c.49,1.24.95,2.42,2.27,2.23a1.552,1.552,0,0,0,.21-.04,2.186,2.186,0,0,0,1.8-2.38,4.066,4.066,0,0,1,.2-1.11c.31-.84.95-2.57,1.57-2.9a.326.326,0,0,1,.13-.04.3.3,0,0,1,.16.02c.5.2.52.33.3,1.79-.08.49-.16,1.09-.24,1.81a8.374,8.374,0,0,0,.17,2.13,23.841,23.841,0,0,1,.31,3.27,12.866,12.866,0,0,0,.49,3.75,3.311,3.311,0,0,0,.12.42,10.015,10.015,0,0,1,.22,1.09c.06.31.1.62.13.94a5.438,5.438,0,0,1,.05.58c.03.32.04.64.04.96Zm4.23-1.98-3.38.47a5.481,5.481,0,0,0-.05-.57,7.473,7.473,0,0,0-.12-.95c-.07-.46-.16-.91-.27-1.36a11.921,11.921,0,0,1-.57-3.9c-.01-.73-.06-1.34-.12-1.88-.06-.6-.14-1.1-.21-1.54a7.127,7.127,0,0,1-.15-1.87c.07-.71.16-1.28.23-1.76a8.879,8.879,0,0,0,.14-1.32,1.323,1.323,0,0,0-.69-1.31l-2.28-1.24a.488.488,0,0,0-.07-.03,1.009,1.009,0,0,0-.15-.07c-.05-.02-.09-.03-.14-.05h-.05a1.027,1.027,0,0,0-.39-.02.988.988,0,0,0-.37.11l-.06.03-.15.09c-.06.05-.13.1-.2.16l-.02.02c-.06.06-.13.12-.19.19a.55.55,0,0,1-.07.09,1.344,1.344,0,0,1-.11.14.865.865,0,0,1-.07.1.607.607,0,0,0-.07.1c-.08.13-.16.26-.24.4a.879.879,0,0,1-.06.1c-.01.02-.02.05-.03.07l-.15.3c-.04.08-.08.15-.11.22a3.454,3.454,0,0,0-.14.34c-.03.06-.06.13-.09.2-.05.13-.1.25-.15.37-.02.06-.04.11-.06.16-.06.17-.12.34-.18.49v.01a3.219,3.219,0,0,0-.18.71,5.3,5.3,0,0,0-.07.66c-.01.15-.03.27-.04.39,0,.03-.01.06-.01.09a2.052,2.052,0,0,1-.07.31.611.611,0,0,1-.07.14c0,.01,0,.01-.01.02s-.03.04-.04.06a.487.487,0,0,1-.04-.11,12.559,12.559,0,0,0-1.28-2.58c-1.47-2.14-1.51-6.1-1.41-11.05.05-2.92-.27-4.52-1.01-5.03a.413.413,0,0,0-.11-.07l-2.27-1.24c-.01,0-.03-.01-.04-.01a.619.619,0,0,0-.19-.07c0-.01-.01,0-.02-.01a1.294,1.294,0,0,0-.4-.02,1.786,1.786,0,0,0-.4.12c-.01.01-.01.01-.02.01a.035.035,0,0,0-.02.01,1.48,1.48,0,0,0-.13.08c-.01,0-.01,0-.02.01a.138.138,0,0,0-.04.03c-.02.02-.04.03-.06.05s-.02.01-.03.02l-.06.06-.04.04a.01.01,0,0,1-.01.01c-.03.04-.06.08-.1.13l-.01.01v.01c-.01.01-.02.02-.02.03a1.081,1.081,0,0,0-.11.18l-.01.01a.037.037,0,0,0-.01.03c-.06.11-.11.23-.17.37,0,.02-.01.03-.02.05s-.01.03-.01.04c-.03.09-.06.18-.09.28a.564.564,0,0,1-.04.12c-.04.15-.07.3-.11.47-.01.03-.01.06-.02.08-.03.15-.06.31-.09.49-.01.07-.02.14-.03.22-.02.14-.04.28-.06.43a2.886,2.886,0,0,1-.04.29c-.01.15-.03.31-.05.48l-.03.33c-.01.18-.02.37-.04.56-.01.12-.01.23-.02.36-.01.22-.02.45-.04.69,0,.11-.01.22-.01.34-.02.37-.03.75-.04,1.16,0,.28-.01.53-.01.77,0,.08-.01.15-.01.22,0,.16-.01.32-.01.46,0,.08-.01.15-.01.22,0,.13-.01.25-.01.36a1.477,1.477,0,0,0-.01.21c-.01.1-.01.2-.02.29a.915.915,0,0,1-.01.17,1.948,1.948,0,0,1-.02.25.57.57,0,0,1-.01.13c-.01.08-.01.16-.02.23a.22.22,0,0,0-.01.08c-.02.09-.03.17-.05.24a.09.09,0,0,1-.01.05.573.573,0,0,1-.04.14l-.03.09c-.01.01-.01.02-.02.03a.349.349,0,0,1-.06.09v.01a.462.462,0,0,1-.07.07h-.01c-.02.02-.05.03-.07.05a1.358,1.358,0,0,1-.33.07,1.759,1.759,0,0,1-.39.02.5.5,0,0,1-.12-.02,1.25,1.25,0,0,1-.19-.03,22.972,22.972,0,0,1-2.75-2.15.638.638,0,0,0-.14-.08.035.035,0,0,1-.02-.01l-2.24-1.22a.219.219,0,0,0-.05-.03,1.555,1.555,0,0,0-.23-.08c-.01-.01-.03,0-.04,0a1.046,1.046,0,0,0-.43-.03,1.294,1.294,0,0,0-.38.12.719.719,0,0,0-.21.12,1.213,1.213,0,0,0-.14.1c-.01.01-.01.02-.02.02a1.848,1.848,0,0,0-.14.14c-.04.05-.08.1-.12.16-.03.04-.06.09-.09.14a.035.035,0,0,0-.01.02l-.02.02c-.04.09-.08.17-.11.26a2.172,2.172,0,0,0-.07.24c0,.04-.02.07-.02.1a2.4,2.4,0,0,0-.05.61.57.57,0,0,0,.01.13,3.474,3.474,0,0,0,.1.7,7.176,7.176,0,0,0,3.3,3.9l.94.51a6.046,6.046,0,0,1,1.52,2.27c.16.32.33.66.54,1.04a4.092,4.092,0,0,1,.24.54,1.424,1.424,0,0,1,.05.16,2.227,2.227,0,0,1,.09.32.468.468,0,0,1,.02.16,2.116,2.116,0,0,1,.02.24c-.01.05-.02.09-.03.14a.615.615,0,0,1-.07.23.7.7,0,0,1-.16.19c-.01,0-.02.01-.03.02a2.516,2.516,0,0,1-.24.15,1.688,1.688,0,0,1-.24.08.423.423,0,0,1-.12.04,2.592,2.592,0,0,1-.42.09,6.367,6.367,0,0,1-.65.05,19.378,19.378,0,0,1-2.03-.2c-.21-.03-.42-.08-.64-.12-.45-.07-.9-.16-1.34-.27-.34-.08-.69-.18-1.03-.28-.17-.05-.35-.1-.52-.16-.53-.18-1.06-.37-1.57-.59-.06-.03-.12-.06-.17-.09-.16-.08-.29-.13-.44-.19s-.3-.14-.43-.19c-.17-.07-.32-.12-.47-.17-.13-.04-.26-.09-.38-.12-.01-.01-.03-.01-.05-.02-.15-.04-.29-.05-.43-.08-.07-.01-.16-.03-.23-.04a2.453,2.453,0,0,0-.61.01,1.547,1.547,0,0,0-.49.14.169.169,0,0,0-.05.02l-.15.09-.15.12a1.2,1.2,0,0,0-.11.12c-.02.01-.03.03-.04.04s-.01.01-.01.02a.435.435,0,0,0-.06.07l-.09.15a2.14,2.14,0,0,0-.1.22l-.03.09c-.51,1.59-.06,2.25,1.65,3.5a3.172,3.172,0,0,0,.36.23l2.28,1.24a21.085,21.085,0,0,0,5.14,1.4c.6.12,1.21.24,1.74.36a11.027,11.027,0,0,0,2.33,1.94,2.343,2.343,0,0,1,.48.46.71.71,0,0,1,.1.14,2.476,2.476,0,0,1,.27.47.689.689,0,0,0,.03.08,2.694,2.694,0,0,1,.16.62c.01.06.01.11.02.17a4.886,4.886,0,0,1,.03.54v.14a1.526,1.526,0,0,1-.03.3,2.186,2.186,0,0,1-.03.36.777.777,0,0,0-.02.16c-.03.18-.07.35-.11.53l-.03.15c-.03.14-.07.28-.11.41-.02.06-.03.13-.05.19a.355.355,0,0,1-.04.09q-.075.24-.15.45c-.02.05-.03.1-.05.15s-.03.09-.05.13c0,.01-.01.02-.01.03-.03.06-.05.11-.07.16s-.03.09-.05.13a.612.612,0,0,0-.05.12.929.929,0,0,1-.05.1c-.01.02-.02.05-.03.07v.01l-25.69,3.61a3.7,3.7,0,0,1-.07-.57h-.01c-.04-.32-.07-.64-.08-.96-.05-.51-.07-1.03-.07-1.55a22.835,22.835,0,0,1,.16-2.97c.16-1.1,1.35-2.64,2.31-3.89a16.133,16.133,0,0,0,1.2-1.71,1.917,1.917,0,0,0,.28-1.64,1.009,1.009,0,0,0-.52-.48.075.075,0,0,0,.05.01l-2.24-1.22a.076.076,0,0,0-.04-.02,1.718,1.718,0,0,0-.29-.11c-.03-.01-.06,0-.08-.01a3.764,3.764,0,0,0-.55-.07,2.286,2.286,0,0,0-.25.02,2.153,2.153,0,0,0-.55.17c-.01.01-.03.01-.04.02a1.339,1.339,0,0,0-.23.13c-.07.04-.15.08-.23.13-.01.01-.03.02-.04.03-.07.04-.13.11-.2.16a3.013,3.013,0,0,0-.28.22c-.02.02-.04.03-.05.04-.05.04-.09.1-.14.14-.13.13-.26.26-.39.4l-.09.09c-.03.03-.06.08-.09.11q-.285.33-.54.69c-.02.03-.04.05-.06.08-.01.01-.01.02-.02.03a9.508,9.508,0,0,0-.59.96c-.02.04-.05.07-.07.11-.05.1-.11.2-.15.3a4.032,4.032,0,0,1-.29.46.218.218,0,0,1-.04.05,1.974,1.974,0,0,1-.31.33.138.138,0,0,1-.04.03,1.659,1.659,0,0,1-.32.22c-.01,0-.02.01-.04.02h-.01a5.865,5.865,0,0,0-2.13-2.42l-2.22-1.21a.313.313,0,0,0-.1-.05,1.192,1.192,0,0,0-.2-.08,1.176,1.176,0,0,0-.2-.07.076.076,0,0,0-.04-.02,2.629,2.629,0,0,0-.39-.06.963.963,0,0,0-.17,0,1.612,1.612,0,0,0-.29.09l-.01.01c-.02.01-.03.01-.04.02-.04.02-.08.04-.13.07a1.71,1.71,0,0,1-.14.11v.01c-.01,0-.01,0-.01.01a1.061,1.061,0,0,0-.15.15,1.249,1.249,0,0,0-.09.12l-.04.04c0,.01-.01.02-.02.03a1.749,1.749,0,0,0-.16.27.558.558,0,0,0-.05.08c-.05.1-.09.21-.14.32a.145.145,0,0,1-.02.07c-.02.06-.03.13-.05.19a2.635,2.635,0,0,0-.07.3,1.435,1.435,0,0,0-.04.22c-.01.1-.02.2-.03.31v.24c0,.11.01.22.02.34a2.13,2.13,0,0,0,.03.25c.02.12.04.24.07.36a2.5,2.5,0,0,0,.07.26c.04.13.09.25.14.38.04.08.07.17.11.25a3.623,3.623,0,0,0,.24.43,2.392,2.392,0,0,0,.13.21,4.833,4.833,0,0,0,.5.64,5.429,5.429,0,0,1,1.47,4.6l-.15,1.98-.12,1.57-.07.98-.04.59-6,.84v-1.55l.01-1.56.06-24.34c.11-.03.22-.05.32-.07,1.02-.14,1.6.29,2.16,1.48.73,1.5,1.1,2.04,1.8,1.94a3.859,3.859,0,0,0,1.21-.5c.17-.09.35-.18.56-.29a6.078,6.078,0,0,1,1.82-.63c1.83-.25,2.59,1.03,3.12,1.95a1.689,1.689,0,0,0,1.43.87,2.1,2.1,0,0,0,.43-.02,5.152,5.152,0,0,0,2.76-1.68,7.737,7.737,0,0,1,4.53-2.43,6.215,6.215,0,0,1,2.78.23,6.1,6.1,0,0,0,2.27.36,1.96,1.96,0,0,0,.7-.25,3.583,3.583,0,0,0,1.32-2.07c1.89-5.61,5.3-7.03,8.06-7.65,2.06-.45,2.33-1.33,2.43-2.26l.04-.37a8.208,8.208,0,0,1,1.84-5.13c3.17-3.67,10.26-4.79,10.33-4.8a.479.479,0,0,0,.33-.21.49.49,0,0,0,.11-.38,9.868,9.868,0,0,1,.85-4.94c1.53-3.1,5.16-5.06,7.49-6.05,1.22-.52,2.08-.77,2.1-.78a.4.4,0,0,0,.18-.1.531.531,0,0,0,.19-.29,11.578,11.578,0,0,1,.7-1.92,11.17,11.17,0,0,1,1.37-2.21Z" transform="translate(-501.11 -172.8)"/>
  </g>
</svg>
