<svg xmlns="http://www.w3.org/2000/svg" width="541.721" height="454.956" viewBox="0 0 541.721 454.956">
  <g>
    <path d="M685.96,270.53c-.03-8.56-3.06-14.58-7.94-17.41v-.01a.076.076,0,0,1-.04-.02l-21.1-12.26a1.093,1.093,0,0,0-.15-.08,1.511,1.511,0,0,0-.18-.09c-.32-.18-.66-.34-1-.49a1.108,1.108,0,0,0-.19-.09c-.05-.02-.11-.04-.16-.06-.4-.16-.81-.31-1.24-.44-.01,0-.02-.01-.04-.01-.45-.13-.9-.23-1.36-.32-.06-.01-.11-.02-.16-.03a1.919,1.919,0,0,0-.22-.03c-.41-.06-.82-.11-1.24-.14-.06-.01-.12-.02-.19-.03a.163.163,0,0,1-.07,0c-.51-.03-1.04-.03-1.57-.01h-.16c-.16.01-.33.02-.5.04-.12.01-.24.01-.36.02-.35.03-.7.08-1.05.13-.03,0-.07.01-.1.01h-.01c-.4.06-.81.14-1.22.23-.12.02-.24.06-.35.08-.28.07-.55.13-.82.2a.185.185,0,0,1-.07.02c-.48.14-.97.29-1.46.46-.11.03-.22.08-.33.12-.39.13-.78.28-1.17.44-.06.02-.11.04-.16.06-.1.04-.2.1-.3.14-.43.18-.85.38-1.28.59-.17.07-.33.15-.5.24-.36.18-.72.37-1.09.58l-17.76-10.33.13-47.48c0,.33-.03.65-.04.98.48-11.6-6.92-23.29-22.21-32.12-20.98-12.11-51.23-15.62-77.5-10.52.12-.87.24-1.73.33-2.6.01-.12.03-.24.04-.36.1-1.02.19-2.04.25-3.05.02-.24.03-.47.05-.7.05-1.02.1-2.04.12-3.05v-.21c.01-.96.01-1.93-.01-2.88-.01-.22-.01-.44-.02-.65-.03-.99-.08-1.98-.14-2.95-.01-.18-.03-.35-.04-.53-.07-.88-.15-1.77-.25-2.64-.02-.17-.04-.34-.06-.5-.11-.97-.25-1.93-.4-2.88-.03-.21-.07-.42-.11-.63-.15-.92-.32-1.84-.52-2.76l-.03-.15c-.2-.95-.43-1.88-.67-2.81-.05-.21-.1-.42-.16-.63s-.1-.41-.16-.61c-.08-.29-.18-.56-.26-.83-.22-.74-.44-1.48-.68-2.2-.15-.43-.29-.86-.44-1.28-.26-.71-.52-1.42-.8-2.11-.1-.26-.19-.53-.29-.78-.08-.18-.16-.35-.24-.53-.17-.4-.34-.8-.52-1.19-.24-.53-.48-1.06-.73-1.59-.19-.39-.39-.78-.59-1.16-.12-.25-.24-.5-.37-.75-.16-.31-.34-.61-.51-.92-.15-.27-.3-.54-.45-.8-.4-.7-.82-1.39-1.25-2.07-.07-.13-.15-.26-.23-.38-.01-.02-.03-.05-.04-.07-.49-.75-.99-1.49-1.51-2.21-.14-.2-.29-.4-.44-.6-.2-.27-.39-.55-.6-.82-.26-.33-.52-.66-.79-.99l-.33-.42c-.49-.6-1-1.19-1.51-1.77a1.618,1.618,0,0,1-.18-.19c-.81-.89-1.64-1.75-2.51-2.59a.6.6,0,0,1-.08-.08c-.14-.13-.29-.25-.43-.38q-1.05-.99-2.16-1.92c-.12-.1-.22-.2-.34-.3-.19-.16-.4-.3-.6-.45-.63-.51-1.28-1-1.94-1.48-.19-.14-.37-.29-.57-.43-.26-.18-.53-.36-.8-.54-.16-.11-.32-.22-.48-.32-.68-.45-1.37-.89-2.07-1.3-.15-.09-.29-.17-.44-.25l-9.93-5.74c-29.54-17.05-70.49-1.59-91.31,34.46l-38.3,66.34v.01a.564.564,0,0,0-.12.04,1.945,1.945,0,0,0-.22.08c-.69.27-1.39.54-2.08.83-.08.03-.15.05-.22.08-.13.06-.27.12-.41.18-.72.3-1.44.61-2.16.94-.22.1-.45.2-.67.3-.88.4-1.77.82-2.66,1.26-.14.07-.28.15-.42.22-.77.38-1.54.78-2.32,1.19l-.72.39c-.91.49-1.81.99-2.72,1.52-1.02.58-2.03,1.2-3.04,1.82l-.84.54c-.81.51-1.61,1.03-2.41,1.57-.23.15-.45.29-.67.44-.99.67-1.98,1.37-2.96,2.08l-.66.48c-.79.58-1.58,1.18-2.36,1.78-.28.21-.55.42-.82.64-.98.76-1.95,1.53-2.92,2.33v.01c-.97.8-1.92,1.62-2.87,2.45-.27.23-.54.47-.8.71-.76.67-1.52,1.36-2.27,2.06-.21.19-.42.38-.63.58-.93.87-1.85,1.76-2.77,2.66-.06.06-.12.11-.18.17-.09.09-.17.18-.26.27q-1.95,1.935-3.86,3.97c-.11.11-.21.22-.31.33q-1.95,2.085-3.85,4.26a.265.265,0,0,1-.05.06c-.06.07-.13.15-.19.23-.86.99-1.71,2-2.56,3.02l-.66.81c-.91,1.11-1.8,2.22-2.68,3.36a.572.572,0,0,0-.07.08c-.11.14-.21.28-.31.42-.66.85-1.31,1.71-1.95,2.57l-.72.99c-.56.76-1.11,1.52-1.66,2.29-.14.21-.29.41-.44.61-.08.12-.15.24-.23.35-.53.76-1.05,1.52-1.57,2.29-.16.24-.33.47-.49.72-.68,1-1.34,2.02-2,3.05a.834.834,0,0,1-.08.12c-.16.25-.31.51-.47.76-.45.7-.89,1.41-1.33,2.13-.23.37-.46.76-.69,1.14-.38.63-.77,1.27-1.14,1.91-.09.16-.19.31-.28.47-.16.27-.31.54-.47.81l-.99,1.74c-.24.44-.49.88-.73,1.33-.17.31-.34.61-.51.92a8.7,8.7,0,0,1-1.81-.53l-35.95,62.25-.01.01-.01.02c-.06.07-.13.15-.2.22-.81.94-1.65,1.88-2.5,2.83-.3.33-.6.66-.9.98-.72.8-1.46,1.61-2.22,2.42-.29.31-.57.62-.87.93-1.03,1.09-2.07,2.19-3.15,3.29-.11.12-.23.24-.34.35-.97.99-1.97,1.99-2.98,3q-.93.93-1.89,1.86c-.14.13-.27.27-.41.4-.86.83-1.73,1.66-2.61,2.5-.23.22-.47.44-.7.66l-2.17,2.02-.69.63c-.92.85-1.85,1.69-2.81,2.54-.18.17-.36.33-.55.49-.8.71-1.61,1.43-2.43,2.14-.27.24-.54.48-.81.71-1.01.87-2.02,1.74-3.05,2.61a323.8,323.8,0,0,1-41.39,29.94c-.72.41-1.43.87-2.13,1.34-.12.08-.24.15-.37.24-.67.46-1.33.94-1.99,1.44-.13.1-.25.2-.38.3-.67.53-1.33,1.07-1.98,1.64a1.07,1.07,0,0,1-.16.14c-.62.56-1.24,1.14-1.85,1.73-.06.06-.13.12-.19.18a1.538,1.538,0,0,0-.12.13q-.705.69-1.38,1.41l-.01.01c-.45.48-.9.98-1.34,1.48a1.538,1.538,0,0,1-.12.13c-.05.06-.09.12-.14.18-.69.79-1.36,1.61-2.01,2.44a.435.435,0,0,1-.06.07,2.307,2.307,0,0,1-.14.19c-.51.68-1.02,1.36-1.51,2.06-.05.07-.11.14-.16.21a.607.607,0,0,1-.07.1c-.47.68-.93,1.36-1.37,2.06a2.141,2.141,0,0,0-.13.19c-.07.1-.13.21-.19.31-.36.57-.71,1.14-1.06,1.72-.05.1-.11.18-.16.28-.02.03-.04.07-.06.1-.39.67-.76,1.35-1.13,2.03-.03.05-.06.11-.09.16-.06.11-.11.23-.17.34-.29.54-.56,1.09-.83,1.64a3.592,3.592,0,0,0-.17.34,1.244,1.244,0,0,0-.1.2c-.33.69-.65,1.39-.96,2.09a.488.488,0,0,1-.03.07l-.09.24q-.4.945-.78,1.89c-.04.11-.09.21-.13.31s-.06.17-.09.26c-.28.75-.56,1.51-.81,2.26,0,.02-.01.03-.02.05-.01.05-.03.1-.04.15-.26.78-.49,1.55-.71,2.33-.03.1-.07.19-.09.29a.936.936,0,0,0-.04.16c-.25.91-.47,1.81-.67,2.72a2.1,2.1,0,0,1-.06.24c-.02.11-.04.23-.06.34-.08.36-.14.71-.21,1.07-.04.24-.09.49-.13.73-.06.37-.11.73-.16,1.1-.03.17-.06.34-.08.52-.01.04-.01.09-.02.13-.09.78-.17,1.55-.22,2.32-.01.17-.02.33-.03.5-.05.79-.08,1.57-.08,2.35l.07,22.58,21.14,12.29,105.72,61.43,21.14,12.29L686.02,293.12Zm-174.3-99.29c.1-.18.19-.36.29-.54.43-.84.84-1.69,1.24-2.53.06-.14.12-.28.19-.42.03-.07.06-.13.09-.2.26-.55.52-1.11.76-1.66.11-.26.22-.53.33-.79.15-.34.29-.68.43-1.01.32-.79.63-1.57.93-2.36l.33-.84.12-.33c.29-.78.55-1.56.81-2.35.08-.22.16-.44.23-.66.34-1.06.67-2.12.97-3.18.01-.04.02-.08.03-.13.36-1.25.68-2.5.98-3.75.06-.27.11-.54.17-.81.22-.98.43-1.97.62-2.95.01-.1.04-.19.05-.28.17-.89.31-1.78.45-2.67.01-.08.02-.16.04-.25,26.02-5.15,56.07-1.72,76.88,10.3,29.14,16.83,29.29,44.21.34,61.03l-3.55,2.06L533.17,252.5l-7.33-4.26c-.14-.08-.29-.16-.43-.25-.11-.06-.22-.11-.33-.17-.44-.24-.89-.48-1.33-.7l-.54-.27c-.59-.28-1.18-.55-1.79-.81a.076.076,0,0,1-.04-.02h-.01c-.62-.26-1.25-.5-1.89-.73-.18-.06-.37-.13-.56-.19-.48-.16-.96-.32-1.45-.47-.12-.03-.24-.07-.36-.11-.07-.02-.14-.03-.21-.05-.26-.08-.52-.15-.79-.22h-.01c-.32-.09-.65-.17-.98-.25l-.23-.06a1.766,1.766,0,0,1-.2-.04c-.62-.14-1.24-.26-1.87-.38-.09-.01-.18-.04-.27-.05-.11-.02-.22-.03-.33-.05-.6-.1-1.21-.19-1.81-.26l-.43-.06c-.73-.08-1.47-.15-2.21-.2-.06,0-.12-.01-.18-.01-.12-.01-.23-.01-.34-.01-.68-.04-1.36-.07-2.04-.08-.17,0-.33-.01-.5-.01-.8,0-1.6.01-2.41.05h-.19c-.1.01-.21.02-.31.02-.87.05-1.75.11-2.63.19-.07.01-.14.01-.21.02l-.52.06-.03-11.69-.1-34.11-.01-2.71-.02-.01,11.37-19.69c.59-1.01,1.14-2.03,1.68-3.05ZM355.5,173.23l37.81-65.49c20.54-35.58,60.96-50.83,90.1-34,23.12,13.34,32.3,42.93,24.85,72.36-.06.24-.12.49-.19.73a88.954,88.954,0,0,1-9.06,21.94l-4.93,8.54v.01l-6.42,11.11-8.42,14.59-14.8,25.63-19.4,33.61-10.92,18.91c-.73.79-1.45,1.6-2.16,2.42-.01.02-.03.03-.04.05-.07.08-.13.16-.2.23-.86,1-1.71,2-2.55,3.02-.22.27-.45.54-.67.82-.49.6-.98,1.2-1.47,1.81l-1.21,1.54-.06.09c-.11.13-.21.28-.32.41-.66.85-1.3,1.71-1.95,2.58-.24.32-.48.65-.72.98-.56.76-1.11,1.53-1.65,2.3-.15.2-.3.4-.44.61-.08.11-.16.23-.24.34l-.33.48c-.31.45-.62.91-.93,1.36-.11.15-.21.3-.31.45-.16.24-.33.48-.49.72-.67,1.01-1.34,2.03-1.99,3.05-.03.04-.06.09-.09.13-.15.25-.31.5-.47.75-.44.71-.89,1.42-1.33,2.13l-.69,1.14c-.38.64-.76,1.27-1.14,1.91-.09.16-.19.31-.28.47-.16.27-.31.55-.46.82-.34.58-.67,1.15-.99,1.73-.24.42-.48.85-.71,1.27a.01.01,0,0,1-.01-.01c-.05-.08-.1-.16-.15-.23-.11-.16-.21-.32-.32-.49l-.18-.3c-.11-.17-.21-.36-.32-.55a3.071,3.071,0,0,1-.17-.31c-.11-.19-.21-.4-.31-.6-.07-.14-.14-.27-.2-.41-.11-.23-.22-.48-.33-.73-.06-.13-.11-.25-.17-.38-.04-.11-.09-.24-.14-.36-.13-.33-.26-.66-.38-1.01-.06-.18-.12-.37-.18-.55-.1-.32-.21-.64-.3-.97-.06-.19-.11-.39-.16-.59l-.09-.33c-.03-.13-.07-.25-.1-.38-.01-.03-.01-.06-.02-.09-.13-.5-.24-1.01-.34-1.55-.15-.74-.26-1.48-.36-2.23-.02-.14-.04-.28-.05-.42-.09-.73-.16-1.46-.21-2.21-.01-.14-.02-.28-.03-.43-.05-.76-.08-1.52-.09-2.3v-.04c-.01-.79,0-1.59.02-2.39.01-.15.01-.3.02-.45.03-.77.07-1.55.13-2.34.01-.15.02-.29.03-.44.07-.79.14-1.59.24-2.38v-.09c.1-.82.21-1.64.34-2.46.02-.16.04-.32.07-.48.1-.65.21-1.29.32-1.94.03-.15.05-.31.08-.46l.09-.48c.13-.65.26-1.31.39-1.96.03-.13.06-.26.08-.38.16-.75.33-1.49.51-2.23.04-.18.08-.35.12-.52.16-.67.33-1.33.51-2,.02-.1.05-.2.07-.3.2-.74.4-1.48.61-2.21l.15-.51c.22-.79.46-1.58.7-2.36a.292.292,0,0,1,.02-.09c.24-.76.48-1.52.73-2.27.05-.16.1-.31.15-.47.25-.75.5-1.49.76-2.23l.15-.42c.1-.28.19-.56.3-.84.14-.42.29-.84.44-1.25.03-.08.05-.15.08-.22.25-.68.51-1.36.76-2.03.06-.16.13-.33.19-.49.24-.63.49-1.26.73-1.87.02-.04.03-.08.05-.13q.39-.975.78-1.92c.07-.16.13-.31.19-.47.26-.63.53-1.25.78-1.86.32-.73.61-1.47.88-2.21.03-.09.07-.17.11-.26.06-.18.12-.36.18-.53.1-.29.2-.57.29-.85.1-.3.2-.6.29-.9.09-.28.18-.56.26-.85.03-.11.07-.22.1-.33.04-.14.07-.28.11-.41.13-.47.25-.93.36-1.4.06-.22.11-.45.16-.67.12-.54.24-1.07.34-1.61.02-.11.05-.22.07-.34,0-.02.01-.05.01-.07.13-.71.24-1.41.33-2.12.03-.18.05-.37.07-.56.06-.54.12-1.08.16-1.61.02-.21.04-.41.05-.61.05-.69.08-1.38.1-2.06v-.03c.01-.69,0-1.37-.02-2.06,0-.19-.01-.39-.02-.58-.03-.52-.06-1.04-.1-1.55-.02-.18-.03-.36-.05-.54q-.09-1-.24-1.98c-.02-.1-.04-.2-.05-.3-.09-.56-.19-1.11-.31-1.66-.03-.19-.08-.38-.12-.57-.11-.51-.23-1-.37-1.5-.03-.1-.05-.21-.08-.32-.01-.04-.02-.07-.03-.11-.17-.59-.35-1.17-.55-1.75-.03-.11-.08-.22-.12-.33-.16-.47-.33-.92-.52-1.38-.03-.07-.05-.15-.08-.22a1.6,1.6,0,0,0-.1-.23l8.85-15.32,5.22-9.05,2.97-5.14,4.25-7.37.72-1.23,7.84-13.59a24.516,24.516,0,0,0,1.91-4.15c3.1-8.77.71-18.06-6.21-22.06s-16.11-1.44-22.15,5.57a25.288,25.288,0,0,0-2.7,3.81l-13.94,24.14-2.81,4.87-10.03,17.38-11.15-6.44a28.1,28.1,0,0,0-11.45-3.63h-.01a30.96,30.96,0,0,0-8.93.48,40.69,40.69,0,0,0-20.39,11.13Zm142.2,58.62.03,11.36-1.57.21a2.909,2.909,0,0,1-.31.04c-.14.03-.28.05-.42.07l-.87.15c-.34.06-.68.12-1.03.19-.29.05-.58.11-.88.17-.34.07-.68.15-1.03.22a.355.355,0,0,1-.1.02c-.27.07-.52.13-.79.19-.35.08-.69.16-1.04.25-.3.08-.6.15-.9.23-.13.04-.26.07-.4.1-.16.05-.32.1-.48.14-.49.14-.98.28-1.48.43-.27.08-.54.16-.81.25-.53.16-1.06.34-1.6.52-.23.07-.46.15-.69.23-.76.26-1.52.53-2.28.82-.08.03-.15.06-.23.09-.69.26-1.38.54-2.08.82-.07.03-.14.06-.22.09-.13.05-.27.12-.4.17-.72.31-1.44.62-2.17.94l-.66.3c-.89.41-1.78.83-2.67,1.27l-.42.21c-.77.39-1.54.79-2.32,1.2l-.72.39c-.9.49-1.81.99-2.72,1.51q-1.515.885-3.03,1.83c-.01.01-.03.02-.04.03l3.99-6.92,8.25-14.28,21.57-37.36.42-.73v.58Zm-66.34-76.13c.22-.25.44-.49.67-.73.09-.09.18-.18.27-.28.39-.39.79-.78,1.21-1.14.08-.07.17-.13.25-.2.34-.29.69-.57,1.04-.83.19-.14.38-.27.57-.4.26-.18.52-.36.79-.52.35-.23.71-.43,1.08-.63.23-.12.46-.26.69-.38.09-.04.17-.08.26-.12.46-.22.93-.42,1.4-.6.05-.02.1-.04.16-.06.46-.17.93-.32,1.4-.45.05-.02.09-.03.14-.05a14.384,14.384,0,0,1,1.45-.31c.08-.02.17-.03.26-.05.47-.07.94-.13,1.41-.16.09-.01.17-.01.25-.02.49-.02.97-.03,1.46-.01.03,0,.06.01.09.01.16.01.31.03.47.05,3.07,4.41,3.74,10.7,1.67,16.75ZM248.06,300.25l33.22-57.54a8.262,8.262,0,0,0,1.02.31c2.1.53,6.55,1.04,13.12-1.22,14.99-5.14,29.29-20.82,38.83-33.4.01-.01.02-.02.02-.03.21-.27.4-.53.6-.79.86-1.15,1.76-2.24,2.69-3.28a40.794,40.794,0,0,1,21.52-13.09,30.954,30.954,0,0,1,7.75-.7h.04a27.473,27.473,0,0,1,12.72,3.65,27.981,27.981,0,0,1,9.58,9.14,33.308,33.308,0,0,1,5.1,15.75,44.463,44.463,0,0,1-3.67,20.7c-5.46,12.81-11.34,30.33-10.63,45.16v.01c.02.5.05.99.1,1.48v.01a40.464,40.464,0,0,0,.62,4.62,30.168,30.168,0,0,0,2.25,7.08,16.338,16.338,0,0,0,4.04,5.62l-12.34,21.38h-.01l-.7,1.23h-.01l-32.11,55.62-12.69-7.33-.7-.4-17.8-10.28-.92-.53-.71-.41-9.02-5.21-10.21-5.9-17.59-10.15-10.48-6.05-.7-.41-7.79-4.5-17.08-9.86Zm-80.9,122.44c.14-16.7,11.9-36.92,26.37-45.28a312.364,312.364,0,0,0,32.97-23.04c-.02.16-.03.33-.05.49-.02.24-.05.49-.07.73-.07.76-.13,1.51-.18,2.24a2.275,2.275,0,0,1-.02.26c-.05.81-.09,1.6-.12,2.38,0,.22-.01.43-.02.64-.01.6-.03,1.19-.03,1.76,0,.2-.01.4-.01.59,0,.74,0,1.46.02,2.16,0,.11.01.21.01.32.02.6.04,1.19.07,1.77.01.19.02.39.03.59.03.54.07,1.08.11,1.6.01.12.01.24.02.36.05.63.11,1.24.18,1.84.01.15.03.29.05.44.05.46.11.91.17,1.35l.06.48c.08.55.16,1.09.24,1.61a.037.037,0,0,1,.01.03c.08.51.17,1,.27,1.48.02.14.05.28.08.42.07.37.15.74.22,1.09.03.11.05.22.07.32.1.44.2.86.3,1.27.02.09.04.17.06.25.09.33.17.64.25.94l.09.33c.09.31.18.62.26.91a.647.647,0,0,1,.04.13c.1.33.2.63.3.93.02.08.05.15.07.23.08.22.15.43.22.63.02.07.05.13.07.2.09.24.17.47.25.68a.418.418,0,0,1,.04.1c.07.17.13.34.19.49a.536.536,0,0,1,.05.11Zm82.98-24.89-.7-.41-18.69-10.86c-.04-.09-.09-.2-.14-.32a1.173,1.173,0,0,1-.05-.11c0-.01-.01-.01-.01-.02-.04-.1-.08-.21-.13-.33-.02-.03-.03-.07-.05-.1-.06-.16-.13-.34-.2-.53l-.06-.15c-.06-.15-.12-.32-.18-.49-.02-.06-.04-.12-.07-.19-.08-.23-.16-.47-.25-.73a.564.564,0,0,0-.04-.12c-.07-.23-.14-.46-.22-.71-.03-.08-.05-.17-.08-.26-.08-.26-.16-.53-.24-.82a.564.564,0,0,0-.04-.12q-.135-.5-.27-1.02c-.02-.09-.05-.19-.07-.29-.07-.29-.15-.59-.22-.89-.02-.1-.04-.19-.06-.29-.09-.39-.18-.79-.27-1.21-.02-.08-.03-.18-.05-.26-.07-.35-.14-.71-.21-1.07-.02-.13-.04-.26-.07-.38-.08-.46-.16-.93-.23-1.42,0-.02-.01-.03-.01-.05-.07-.47-.14-.96-.2-1.45-.02-.15-.04-.29-.06-.44q-.075-.645-.15-1.32c-.01-.11-.02-.21-.03-.32-.06-.54-.11-1.1-.15-1.67-.01-.15-.02-.29-.03-.43-.04-.47-.07-.94-.09-1.42l-.03-.48c-.03-.61-.05-1.23-.06-1.87a2.908,2.908,0,0,1-.01-.3c-.01-.55-.01-1.11-.01-1.68v-.57c0-.6.01-1.22.03-1.85a1.77,1.77,0,0,1,.01-.23c.02-.69.05-1.41.09-2.13.01-.19.03-.39.04-.59.04-.59.08-1.18.13-1.79.01-.18.02-.35.04-.53.05-.58.11-1.18.18-1.78v-.01c.01-.17.03-.34.05-.51l.06-.51c.05-.38.09-.77.14-1.16.03-.25.07-.51.11-.76s.07-.5.1-.76c.1-.7.21-1.41.33-2.12.03-.15.05-.29.07-.43.15-.85.31-1.72.48-2.6.04-.24.09-.48.14-.72.08-.4.16-.79.25-1.2.04-.19.09-.39.13-.58.14-.63.29-1.27.44-1.91.11-.45.21-.9.33-1.36.17-.68.35-1.37.53-2.06.09-.33.17-.66.27-1,.03-.11.06-.23.1-.34.13-.47.27-.95.41-1.43.17-.59.35-1.18.53-1.77.15-.5.32-1,.48-1.5.14-.43.26-.85.41-1.29.06-.18.13-.36.19-.54.14-.42.28-.84.43-1.26q.345-.99.72-2.01c.16-.44.32-.88.49-1.33.12-.3.22-.6.34-.91.25-.65.51-1.3.77-1.96l16.91,9.78,8.03,4.65.7.4,10.47,6.06,17.05,9.86,10.74,6.22,8.47,4.9.71.41,1.46.84,17.79,10.29.71.41,12.74,7.37a123.76,123.76,0,0,0-8.43,31.5c-1.28,1.02-2.55,2.01-3.78,2.96-7.28,5.63-13.81,10.22-18.9,13.63l-.01.01c-.32.21-.63.42-.93.62-.13.09-.26.18-.39.26Zm43.94,120.78-.06-21.76c0-.63.01-1.26.04-1.91.02-.28.04-.56.06-.85.63-9.05,4.46-18.91,10.12-27.23,4.46-6.57,10.06-12.18,16.15-15.69.08-.05,3.54-2.06,9.18-5.79.36-.24.73-.48,1.11-.74.15-.1.31-.2.46-.3.3-.21.61-.41.93-.62a.01.01,0,0,1,.01-.01c.65-.44,1.33-.9,2.03-1.39,3.49-2.39,7.5-5.24,11.87-8.5l.05-.05c1.57-1.17,3.18-2.39,4.83-3.68,3.54-2.75,7.26-5.74,11.07-8.96q6.06-5.13,11.43-10.13c.51-.47,1.02-.95,1.52-1.42,28.37-26.78,42.39-50.47,49.26-66.43a181.513,181.513,0,0,1,24.6-41.07c11.53-14.47,24.89-26.46,38.85-34.52a104.277,104.277,0,0,1,10.2-5.18c.24-.11.47-.21.7-.31a78.313,78.313,0,0,1,15.37-4.86,55.978,55.978,0,0,1,13.24-1.15c11.18.4,20.91,4.57,28.26,12.48,8.07,8.69,25.44,16.63,62.31,5.07.55-.17,1.1-.35,1.65-.53a234.547,234.547,0,0,0,39.39-17.24c.45-.26.9-.51,1.34-.73,13.97-7.26,25.15-.38,25.2,15.86l.06,21.76Z" transform="translate(-144.8 -65.431)" style="stroke: #000;stroke-miterlimit: 10" vector-effect="non-scaling-stroke"/>
    <path d="M350.03,283.78c-.01-.16-.02-.33-.02-.5-.02-.39-.05-.79-.08-1.18-.02-.19-.04-.38-.05-.57q-.06-.585-.15-1.17c-.02-.16-.04-.32-.07-.48-.08-.54-.18-1.08-.29-1.6-.01-.05-.02-.09-.03-.13-.11-.49-.22-.97-.35-1.44a.847.847,0,0,1-.04-.17c-.04-.12-.08-.23-.11-.35-.1-.32-.19-.63-.3-.94-.06-.19-.12-.37-.19-.55-.05-.14-.1-.29-.15-.43-.06-.16-.13-.32-.19-.47-.04-.11-.08-.23-.12-.34l-.06-.12c-.28-.67-.58-1.31-.91-1.94-.03-.06-.05-.11-.08-.17s-.07-.12-.11-.19c-.29-.54-.6-1.08-.94-1.6,0-.01-.01-.02-.01-.03a.865.865,0,0,1-.07-.1c-.28-.43-.58-.85-.89-1.26-.05-.06-.08-.13-.13-.19s-.11-.13-.17-.19c-.25-.32-.51-.64-.77-.94-.07-.08-.12-.16-.19-.23a.6.6,0,0,0-.08-.08c-.34-.38-.7-.75-1.07-1.11l-.03-.03c-.06-.06-.13-.11-.18-.16-.31-.29-.61-.56-.93-.83l-.15-.12c-.08-.07-.17-.13-.25-.2-.27-.22-.55-.43-.83-.63-.09-.06-.16-.13-.25-.19-.06-.04-.13-.08-.19-.12-.32-.22-.64-.43-.98-.63-.09-.05-.17-.12-.26-.17-.06-.04-.12-.07-.19-.11l-5.84-3.37c-.06-.03-.12-.07-.18-.1l-1.58-.91-5.87-3.39c-.52-.3-1.05-.58-1.6-.83a23.216,23.216,0,0,0-12.84-1.93,1.225,1.225,0,0,0-.19.02l-.54.07.15.91.64,3.9a31.3,31.3,0,0,0-3.87,1.69q-.7.36-1.38.75v.01c-.31.17-.61.35-.91.54l-1.72-.99-4.33-2.5-.5.32c-12.1,7.83-18.98,22.82-16.74,36.47a27.984,27.984,0,0,0,.98,4.13c.15.48.31.94.49,1.4q.18.495.39.96a23.04,23.04,0,0,0,8.1,10.15q.72.495,1.47.93l7.45,4.31c.55.32,1.12.61,1.7.88l4.41,2.55c.43.24.87.47,1.31.69.14.07.28.13.43.2.3.13.6.27.9.4.17.07.35.13.52.2.28.1.56.21.85.3.18.06.36.12.55.18l.85.24c.19.05.37.09.55.14.3.07.61.13.91.19.17.03.34.07.51.1q.54.09,1.08.15c.12.01.23.03.35.04.48.05.96.09,1.44.11.12.01.24,0,.36.01.36.01.73.01,1.09.01.18,0,.36-.01.53-.02.31-.01.63-.03.94-.05.19-.01.38-.03.57-.05.3-.03.6-.06.91-.1.19-.03.38-.06.58-.09.1-.01.21-.03.31-.05.2-.03.4-.07.6-.1s.37-.07.56-.11q.495-.105.99-.24c.16-.04.32-.07.47-.11.49-.13.97-.27,1.45-.43a.637.637,0,0,0,.07-.02c.46-.15.92-.32,1.38-.49.16-.06.31-.13.47-.19.32-.13.64-.26.96-.4.18-.08.36-.17.55-.25l.87-.42c.09-.05.18-.09.27-.13s.19-.11.29-.16q.435-.225.87-.48c.18-.1.36-.2.53-.3.31-.18.61-.37.91-.56.12-.07.24-.14.36-.22a.555.555,0,0,1,.08-.06c.65-.42,1.28-.87,1.91-1.35a2.141,2.141,0,0,0,.19-.13l.16-.13c.55-.43,1.09-.86,1.61-1.32a.3.3,0,0,1,.07-.05c.06-.06.13-.13.19-.18.41-.37.81-.74,1.2-1.12.07-.07.15-.13.22-.2s.12-.13.18-.19c.36-.36.71-.73,1.06-1.11.06-.07.13-.13.19-.2a.265.265,0,0,0,.05-.06c.41-.45.81-.92,1.2-1.4l.08-.08c.08-.1.15-.21.23-.3.28-.36.56-.72.83-1.08.06-.08.12-.15.17-.22.07-.1.14-.21.21-.3q.375-.525.72-1.05c.08-.11.16-.22.23-.33.04-.06.08-.13.12-.2.29-.43.56-.88.83-1.34.05-.08.1-.15.15-.24.02-.03.04-.07.06-.1.32-.55.61-1.1.9-1.66a1.093,1.093,0,0,1,.08-.15c.05-.1.1-.2.15-.31.24-.48.47-.96.68-1.44l.15-.3c.02-.07.05-.13.07-.2.29-.66.56-1.33.81-1.99l.03-.09c.03-.07.04-.13.06-.19.28-.78.54-1.56.76-2.35a.487.487,0,0,0,.04-.11c.01-.02.01-.04.02-.06.15-.53.29-1.07.41-1.61.03-.11.05-.22.07-.33.1-.42.19-.85.27-1.27l.03-.12c.02-.12.03-.24.05-.36.08-.42.14-.85.2-1.28.03-.2.05-.39.08-.59.04-.4.09-.8.12-1.21.02-.18.03-.36.05-.54.03-.52.06-1.04.07-1.55v-.16C350.05,284.9,350.05,284.34,350.03,283.78Zm-53.81,27.29a20.52,20.52,0,0,1-2.79-1.23.031.031,0,0,0-.02-.01c-.21-.11-.41-.22-.61-.34a17.422,17.422,0,0,1-1.47-.94,22.413,22.413,0,0,1-8.01-10.31c-.13-.32-.26-.65-.37-.99-.16-.43-.3-.88-.43-1.33a28.794,28.794,0,0,1-.79-3.47c-2.15-13.03,4.31-27.33,15.71-35l1.05,6.42.17.99.17,1.06.49,2.98.21,1.27L302.62,289l3.81,23.2A22.68,22.68,0,0,1,296.22,311.07Zm18.38,4.27-6.02-36.66-3.02-18.39-.25-.14-.31-.18q.315-.2.63-.36v-.01a29.155,29.155,0,0,1,4.84-2.21l2.3,14.03,6.12,37.29,5.16,2.98A29.379,29.379,0,0,1,314.6,315.34Zm4.96-8.09-6.08-37.05-2.15-13.1h-.01l-.14-.9-.61-3.7a22.361,22.361,0,0,1,12.03,1.89,16.075,16.075,0,0,1,1.6.82,2.8,2.8,0,0,1,.32.2h.01a19.461,19.461,0,0,1,2.54,1.8c.01,0,.02.01.03.02a24.2,24.2,0,0,1,8.17,15.02C337.42,285.28,330.97,299.59,319.56,307.25Z" transform="translate(-144.8 -65.431)" style="stroke: #000;stroke-miterlimit: 10" vector-effect="non-scaling-stroke"/>
  </g>
  <g>
    <g>
      <path d="M229.75,386.41c-.06-.15-.12-.32-.19-.49a.418.418,0,0,0-.04-.1c-.08-.21-.16-.44-.25-.68-.02-.07-.05-.13-.07-.2-.07-.2-.14-.41-.22-.63-.02-.08-.05-.15-.07-.23-.1-.3-.2-.6-.3-.93a.647.647,0,0,0-.04-.13c-.08-.29-.17-.6-.26-.91l-.09-.33c-.08-.3-.16-.61-.25-.94-.02-.08-.04-.16-.06-.25-.1-.41-.2-.83-.3-1.27-.02-.1-.04-.21-.07-.32-.07-.35-.15-.72-.22-1.09-.03-.14-.06-.28-.08-.42-.1-.48-.19-.97-.27-1.48a.037.037,0,0,0-.01-.03c-.08-.52-.16-1.06-.24-1.61l-.06-.48c-.06-.44-.12-.89-.17-1.35-.02-.15-.04-.29-.05-.44-.07-.6-.13-1.21-.18-1.84-.01-.12-.01-.24-.02-.36-.04-.52-.08-1.06-.11-1.6-.01-.2-.02-.4-.03-.59-.03-.58-.05-1.17-.07-1.77,0-.11-.01-.21-.01-.32-.02-.7-.02-1.42-.02-2.16,0-.19.01-.39.01-.59,0-.57.02-1.16.03-1.76.01-.21.02-.42.02-.64.03-.78.07-1.57.12-2.38a2.275,2.275,0,0,0,.02-.26c.05-.73.11-1.48.18-2.24.02-.24.05-.49.07-.73.02-.16.03-.33.05-.49a312.364,312.364,0,0,1-32.97,23.04c-14.47,8.36-26.23,28.58-26.37,45.28l62.64-36.17A.536.536,0,0,0,229.75,386.41ZM497.18,197.73l.42-.15V197Z" transform="translate(-144.8 -65.431)" style="fill: #fff;stroke: #000;stroke-miterlimit: 10" vector-effect="non-scaling-stroke"/>
      <path d="M229.8,386.52l-62.64,36.17c.14-16.7,11.9-36.92,26.37-45.28a312.364,312.364,0,0,0,32.97-23.04c-.02.16-.03.33-.05.49-.02.24-.05.49-.07.73-.07.76-.13,1.51-.18,2.24a2.275,2.275,0,0,1-.02.26c-.05.81-.09,1.6-.12,2.38,0,.22-.01.43-.02.64-.01.6-.03,1.19-.03,1.76,0,.2-.01.4-.01.59,0,.74,0,1.46.02,2.16,0,.11.01.21.01.32.02.6.04,1.19.07,1.77.01.19.02.39.03.59.03.54.07,1.08.11,1.6.01.12.01.24.02.36.05.63.11,1.24.18,1.84.01.15.03.29.05.44.05.46.11.91.17,1.35l.06.48c.08.55.16,1.09.24,1.61a.037.037,0,0,1,.01.03c.08.51.17,1,.27,1.48.02.14.05.28.08.42.07.37.15.74.22,1.09.03.11.05.22.07.32.1.44.2.86.3,1.27.02.09.04.17.06.25.09.33.17.64.25.94l.09.33c.09.31.18.62.26.91a.647.647,0,0,1,.04.13c.1.33.2.63.3.93.02.08.05.15.07.23.08.22.15.43.22.63.02.07.05.13.07.2.09.24.17.47.25.68a.418.418,0,0,1,.04.1c.07.17.13.34.19.49A.536.536,0,0,1,229.8,386.52Z" transform="translate(-144.8 -65.431)" style="fill: #fff;stroke: #000;stroke-miterlimit: 10" vector-effect="non-scaling-stroke"/>
    </g>
    <g>
      <path d="M497.18,197.73l.42-.15V197Z" transform="translate(-144.8 -65.431)" style="fill: #fff;stroke: #000;stroke-miterlimit: 10" vector-effect="non-scaling-stroke"/>
      <g>
        <path d="M597.94,214.86l-3.55,2.06L533.17,252.5l-7.33-4.26c-.14-.08-.29-.16-.43-.25-.11-.06-.22-.11-.33-.17-.44-.24-.89-.48-1.33-.7l-.54-.27c-.59-.28-1.18-.55-1.79-.81a.076.076,0,0,1-.04-.02h-.01c-.62-.26-1.25-.5-1.89-.73-.18-.06-.37-.13-.56-.19-.48-.16-.96-.32-1.45-.47-.12-.03-.24-.07-.36-.11-.07-.02-.14-.03-.21-.05-.26-.08-.52-.15-.79-.22h-.01c-.32-.09-.65-.17-.98-.25l-.23-.06a1.766,1.766,0,0,1-.2-.04c-.62-.14-1.24-.26-1.87-.38-.09-.01-.18-.04-.27-.05-.11-.02-.22-.03-.33-.05-.6-.1-1.21-.19-1.81-.26l-.43-.06c-.73-.08-1.47-.15-2.21-.2-.06,0-.12-.01-.18-.01-.12-.01-.23-.01-.34-.01-.68-.04-1.36-.07-2.04-.08-.17,0-.33-.01-.5-.01-.8,0-1.6.01-2.41.05h-.19c-.1.01-.21.02-.31.02-.87.05-1.75.11-2.63.19-.07.01-.14.01-.21.02l-.52.06-.03-11.69-.1-34.11-.01-2.71-.02-.01,11.37-19.69c.59-1.01,1.14-2.03,1.68-3.05l.33-.63c.1-.18.19-.36.29-.54.43-.84.84-1.69,1.24-2.53.06-.14.12-.28.19-.42.03-.07.06-.13.09-.2.26-.55.52-1.11.76-1.66.11-.26.22-.53.33-.79.15-.34.29-.68.43-1.01.32-.79.63-1.57.93-2.36l.33-.84.12-.33c.29-.78.55-1.56.81-2.35.08-.22.16-.44.23-.66.34-1.06.67-2.12.97-3.18.01-.04.02-.08.03-.13.36-1.25.68-2.5.98-3.75.06-.27.11-.54.17-.81.22-.98.43-1.97.62-2.95.01-.1.04-.19.05-.28.17-.89.31-1.78.45-2.67.01-.08.02-.16.04-.25,26.02-5.15,56.07-1.72,76.88,10.3C626.74,170.66,626.89,198.04,597.94,214.86Z" transform="translate(-144.8 -65.431)" style="fill: #fff;stroke: #000;stroke-miterlimit: 10" vector-effect="non-scaling-stroke"/>
        <path d="M497.6,197v.58l-.42.15Z" transform="translate(-144.8 -65.431)" style="fill: #fff;stroke: #000;stroke-miterlimit: 10" vector-effect="non-scaling-stroke"/>
      </g>
    </g>
    <g>
      <path d="M497.18,197.73l.42-.15V197Z" transform="translate(-144.8 -65.431)" style="fill: #fff;stroke: #000;stroke-miterlimit: 10" vector-effect="non-scaling-stroke"/>
      <g>
        <path d="M497.73,243.21l-1.57.21a2.909,2.909,0,0,1-.31.04c-.14.03-.28.05-.42.07l-.87.15c-.34.06-.68.12-1.03.19-.29.05-.58.11-.88.17-.34.07-.68.15-1.03.22a.355.355,0,0,1-.1.02c-.27.07-.52.13-.79.19-.35.08-.69.16-1.04.25-.3.08-.6.15-.9.23-.13.04-.26.07-.4.1-.16.05-.32.1-.48.14-.49.14-.98.28-1.48.43-.27.08-.54.16-.81.25-.53.16-1.06.34-1.6.52-.23.07-.46.15-.69.23-.76.26-1.52.53-2.28.82-.08.03-.15.06-.23.09-.69.26-1.38.54-2.08.82-.07.03-.14.06-.22.09-.13.05-.27.12-.4.17-.72.31-1.44.62-2.17.94l-.66.3c-.89.41-1.78.83-2.67,1.27l-.42.21c-.77.39-1.54.79-2.32,1.2l-.72.39c-.9.49-1.81.99-2.72,1.51q-1.515.885-3.03,1.83c-.01.01-.03.02-.04.03l3.99-6.92,8.25-14.28,21.57-37.36.42-.15.1,34.27Z" transform="translate(-144.8 -65.431)" style="fill: #fff;stroke: #000;stroke-miterlimit: 10"/>
        <path d="M497.6,197v.58l-.42.15Z" transform="translate(-144.8 -65.431)" style="fill: #fff;stroke: #000;stroke-miterlimit: 10" vector-effect="non-scaling-stroke"/>
      </g>
    </g>
    <g>
      <path d="M341.31,382.96a123.76,123.76,0,0,0-8.43,31.5c-1.28,1.02-2.55,2.01-3.78,2.96-7.28,5.63-13.81,10.22-18.9,13.63l-.01.01c-.32.21-.63.42-.93.62-.13.09-.26.18-.39.26L250.14,397.8l-.7-.41-18.69-10.86c-.04-.09-.09-.2-.14-.32a1.173,1.173,0,0,1-.05-.11c0-.01-.01-.01-.01-.02-.04-.1-.08-.21-.13-.33-.02-.03-.03-.07-.05-.1-.06-.16-.13-.34-.2-.53l-.06-.15c-.06-.15-.12-.32-.18-.49-.02-.06-.04-.12-.07-.19-.08-.23-.16-.47-.25-.73a.564.564,0,0,0-.04-.12c-.07-.23-.14-.46-.22-.71-.03-.08-.05-.17-.08-.26-.08-.26-.16-.53-.24-.82a.564.564,0,0,0-.04-.12q-.135-.5-.27-1.02c-.02-.09-.05-.19-.07-.29-.07-.29-.15-.59-.22-.89-.02-.1-.04-.19-.06-.29-.09-.39-.18-.79-.27-1.21-.02-.08-.03-.18-.05-.26-.07-.35-.14-.71-.21-1.07-.02-.13-.04-.26-.07-.38-.08-.46-.16-.93-.23-1.42,0-.02-.01-.03-.01-.05-.07-.47-.14-.96-.2-1.45-.02-.15-.04-.29-.06-.44q-.075-.645-.15-1.32c-.01-.11-.02-.21-.03-.32-.06-.54-.11-1.1-.15-1.67-.01-.15-.02-.29-.03-.43-.04-.47-.07-.94-.09-1.42l-.03-.48c-.03-.61-.05-1.23-.06-1.87a2.908,2.908,0,0,1-.01-.3c-.01-.55-.01-1.11-.01-1.68v-.57c0-.6.01-1.22.03-1.85a1.77,1.77,0,0,1,.01-.23c.02-.69.05-1.41.09-2.13.01-.19.03-.39.04-.59.04-.59.08-1.18.13-1.79.01-.18.02-.35.04-.53.05-.58.11-1.18.18-1.78v-.01c.01-.17.03-.34.05-.51l.06-.51c.05-.38.09-.77.14-1.16.03-.25.07-.51.11-.76s.07-.5.1-.76c.1-.7.21-1.41.33-2.12.03-.15.05-.29.07-.43.15-.85.31-1.72.48-2.6.04-.24.09-.48.14-.72.08-.4.16-.79.25-1.2.04-.19.09-.39.13-.58.14-.63.29-1.27.44-1.91.11-.45.21-.9.33-1.36.17-.68.35-1.37.53-2.06.09-.33.17-.66.27-1,.03-.11.06-.23.1-.34.13-.47.27-.95.41-1.43.17-.59.35-1.18.53-1.77.15-.5.32-1,.48-1.5.14-.43.26-.85.41-1.29.06-.18.13-.36.19-.54.14-.42.28-.84.43-1.26q.345-.99.72-2.01c.16-.44.32-.88.49-1.33.12-.3.22-.6.34-.91.25-.65.51-1.3.77-1.96l16.91,9.78,8.03,4.65.7.4,10.47,6.06,17.05,9.86,10.74,6.22,8.47,4.9.71.41,1.46.84,17.79,10.29.71.41Z" transform="translate(-144.8 -65.431)" style="fill: #fff;stroke: #000;stroke-miterlimit: 10" vector-effect="non-scaling-stroke"/>
      <path d="M508.26,146.1c-.06.24-.12.49-.19.73a88.954,88.954,0,0,1-9.06,21.94l-4.93,8.54v.01l-6.42,11.11-8.42,14.59-14.8,25.63-19.4,33.61-10.92,18.91c-.73.79-1.45,1.6-2.16,2.42-.01.02-.03.03-.04.05-.07.08-.13.16-.2.23-.86,1-1.71,2-2.55,3.02-.22.27-.45.54-.67.82-.49.6-.98,1.2-1.47,1.81l-1.21,1.54-.06.09c-.11.13-.21.28-.32.41-.66.85-1.3,1.71-1.95,2.58-.24.32-.48.65-.72.98-.56.76-1.11,1.53-1.65,2.3-.15.2-.3.4-.44.61-.08.11-.16.23-.24.34l-.33.48c-.31.45-.62.91-.93,1.36-.11.15-.21.3-.31.45-.16.24-.33.48-.49.72-.67,1.01-1.34,2.03-1.99,3.05-.03.04-.06.09-.09.13-.15.25-.31.5-.47.75-.44.71-.89,1.42-1.33,2.13l-.69,1.14c-.38.64-.76,1.27-1.14,1.91-.09.16-.19.31-.28.47-.16.27-.31.55-.46.82-.34.58-.67,1.15-.99,1.73-.24.42-.48.85-.71,1.27a.01.01,0,0,1-.01-.01c-.05-.08-.1-.16-.15-.23-.11-.16-.21-.32-.32-.49l-.18-.3c-.11-.17-.21-.36-.32-.55a3.071,3.071,0,0,1-.17-.31c-.11-.19-.21-.4-.31-.6-.07-.14-.14-.27-.2-.41-.11-.23-.22-.48-.33-.73-.06-.13-.11-.25-.17-.38-.04-.11-.09-.24-.14-.36-.13-.33-.26-.66-.38-1.01-.06-.18-.12-.37-.18-.55-.1-.32-.21-.64-.3-.97-.06-.19-.11-.39-.16-.59l-.09-.33c-.03-.13-.07-.25-.1-.38-.01-.03-.01-.06-.02-.09-.13-.5-.24-1.01-.34-1.55-.15-.74-.26-1.48-.36-2.23-.02-.14-.04-.28-.05-.42-.09-.73-.16-1.46-.21-2.21-.01-.14-.02-.28-.03-.43-.05-.76-.08-1.52-.09-2.3v-.04c-.01-.79,0-1.59.02-2.39.01-.15.01-.3.02-.45.03-.77.07-1.55.13-2.34.01-.15.02-.29.03-.44.07-.79.14-1.59.24-2.38v-.09c.1-.82.21-1.64.34-2.46.02-.16.04-.32.07-.48.1-.65.21-1.29.32-1.94.03-.15.05-.31.08-.46l.09-.48c.13-.65.26-1.31.39-1.96.03-.13.06-.26.08-.38.16-.75.33-1.49.51-2.23.04-.18.08-.35.12-.52.16-.67.33-1.33.51-2,.02-.1.05-.2.07-.3.2-.74.4-1.48.61-2.21l.15-.51c.22-.79.46-1.58.7-2.36a.292.292,0,0,1,.02-.09c.24-.76.48-1.52.73-2.27.05-.16.1-.31.15-.47.25-.75.5-1.49.76-2.23l.15-.42c.1-.28.19-.56.3-.84.14-.42.29-.84.44-1.25.03-.08.05-.15.08-.22.25-.68.51-1.36.76-2.03.06-.16.13-.33.19-.49.24-.63.49-1.26.73-1.87.02-.04.03-.08.05-.13q.39-.975.78-1.92c.07-.16.13-.31.19-.47.26-.63.53-1.25.78-1.86.32-.73.61-1.47.88-2.21.03-.09.07-.17.11-.26.06-.18.12-.36.18-.53.1-.29.2-.57.29-.85.1-.3.2-.6.29-.9.09-.28.18-.56.26-.85.03-.11.07-.22.1-.33.04-.14.07-.28.11-.41.13-.47.25-.93.36-1.4.06-.22.11-.45.16-.67.12-.54.24-1.07.34-1.61.02-.11.05-.22.07-.34,0-.02.01-.05.01-.07.13-.71.24-1.41.33-2.12.03-.18.05-.37.07-.56.06-.54.12-1.08.16-1.61.02-.21.04-.41.05-.61.05-.69.08-1.38.1-2.06v-.03c.01-.69,0-1.37-.02-2.06,0-.19-.01-.39-.02-.58-.03-.52-.06-1.04-.1-1.55-.02-.18-.03-.36-.05-.54q-.09-1-.24-1.98c-.02-.1-.04-.2-.05-.3-.09-.56-.19-1.11-.31-1.66-.03-.19-.08-.38-.12-.57-.11-.51-.23-1-.37-1.5-.03-.1-.05-.21-.08-.32-.01-.04-.02-.07-.03-.11-.17-.59-.35-1.17-.55-1.75-.03-.11-.08-.22-.12-.33-.16-.47-.33-.92-.52-1.38-.03-.07-.05-.15-.08-.22a1.6,1.6,0,0,0-.1-.23l8.85-15.32,5.22-9.05,2.97-5.14,4.25-7.37.72-1.23,7.84-13.59a24.516,24.516,0,0,0,1.91-4.15c3.1-8.77.71-18.06-6.21-22.06s-16.11-1.44-22.15,5.57a25.288,25.288,0,0,0-2.7,3.81l-13.94,24.14-2.81,4.87-10.03,17.38-11.15-6.44a28.1,28.1,0,0,0-11.45-3.63h-.01a30.96,30.96,0,0,0-8.93.48,40.69,40.69,0,0,0-20.39,11.13l16.19-28.04,37.81-65.49c20.54-35.58,60.96-50.83,90.1-34C506.53,87.08,515.71,116.67,508.26,146.1Z" transform="translate(-144.8 -65.431)" style="fill: #fff;stroke: #000;stroke-miterlimit: 10" vector-effect="non-scaling-stroke"/>
    </g>
    <path d="M394.27,219.05a33.308,33.308,0,0,0-5.1-15.75,27.981,27.981,0,0,0-9.58-9.14,27.473,27.473,0,0,0-12.72-3.65h-.04a30.954,30.954,0,0,0-7.75.7,40.794,40.794,0,0,0-21.52,13.09c-.93,1.04-1.83,2.13-2.69,3.28-.2.26-.39.52-.6.79,0,.01-.01.02-.02.03-9.54,12.58-23.84,28.26-38.83,33.4-6.57,2.26-11.02,1.75-13.12,1.22a8.262,8.262,0,0,1-1.02-.31l-33.22,57.54-11.94,20.68,17.08,9.86,7.79,4.5.7.41,10.48,6.05,17.59,10.15,10.21,5.9,9.02,5.21.71.41.92.53,17.8,10.28.7.4,12.69,7.33,32.11-55.62h.01l.7-1.23h.01l12.34-21.38a16.338,16.338,0,0,1-4.04-5.62,30.168,30.168,0,0,1-2.25-7.08,40.464,40.464,0,0,1-.62-4.62v-.01c-.05-.49-.08-.98-.1-1.48v-.01c-.71-14.83,5.17-32.35,10.63-45.16A44.463,44.463,0,0,0,394.27,219.05Zm-44.23,66.58c-.01.51-.04,1.03-.07,1.55-.02.18-.03.36-.05.54-.03.41-.08.81-.12,1.21-.03.2-.05.39-.08.59-.06.43-.12.86-.2,1.28-.02.12-.03.24-.05.36l-.03.12c-.08.42-.17.85-.27,1.27-.02.11-.04.22-.07.33-.12.54-.26,1.08-.41,1.61-.01.02-.01.04-.02.06a.487.487,0,0,1-.04.11c-.22.79-.48,1.57-.76,2.35-.02.06-.03.12-.06.19l-.03.09c-.25.66-.52,1.33-.81,1.99-.02.07-.05.13-.07.2l-.15.3c-.21.48-.44.96-.68,1.44-.05.11-.1.21-.15.31a1.093,1.093,0,0,0-.08.15c-.29.56-.58,1.11-.9,1.66-.02.03-.04.07-.06.1-.05.09-.1.16-.15.24-.27.46-.54.91-.83,1.34-.04.07-.08.14-.12.2-.07.11-.15.22-.23.33q-.345.525-.72,1.05c-.07.09-.14.2-.21.3-.05.07-.11.14-.17.22-.27.36-.55.72-.83,1.08-.08.09-.15.2-.23.3l-.08.08c-.39.48-.79.95-1.2,1.4a.265.265,0,0,1-.05.06c-.06.07-.13.13-.19.2-.35.38-.7.75-1.06,1.11-.06.06-.12.13-.18.19s-.15.13-.22.2c-.39.38-.79.75-1.2,1.12-.06.05-.13.12-.19.18a.3.3,0,0,0-.07.05c-.52.46-1.06.89-1.61,1.32l-.16.13a2.141,2.141,0,0,1-.19.13c-.63.48-1.26.93-1.91,1.35a.555.555,0,0,0-.08.06c-.12.08-.24.15-.36.22-.3.19-.6.38-.91.56-.17.1-.35.2-.53.3q-.435.255-.87.48c-.1.05-.19.11-.29.16s-.18.08-.27.13l-.87.42c-.19.08-.37.17-.55.25-.32.14-.64.27-.96.4-.16.06-.31.13-.47.19-.46.17-.92.34-1.38.49a.637.637,0,0,1-.07.02c-.48.16-.96.3-1.45.43-.15.04-.31.07-.47.11q-.495.135-.99.24c-.19.04-.37.07-.56.11s-.4.07-.6.1c-.1.02-.21.04-.31.05-.2.03-.39.06-.58.09-.31.04-.61.07-.91.1-.19.02-.38.04-.57.05-.31.02-.63.04-.94.05-.17.01-.35.02-.53.02-.36,0-.73,0-1.09-.01-.12-.01-.24,0-.36-.01-.48-.02-.96-.06-1.44-.11-.12-.01-.23-.03-.35-.04q-.54-.06-1.08-.15c-.17-.03-.34-.07-.51-.1-.3-.06-.61-.12-.91-.19-.18-.05-.36-.09-.55-.14l-.85-.24c-.19-.06-.37-.12-.55-.18-.29-.09-.57-.2-.85-.3-.17-.07-.35-.13-.52-.2-.3-.13-.6-.27-.9-.4-.15-.07-.29-.13-.43-.2-.44-.22-.88-.45-1.31-.69l-4.41-2.55c-.58-.27-1.15-.56-1.7-.88l-7.45-4.31q-.75-.435-1.47-.93a23.04,23.04,0,0,1-8.1-10.15q-.21-.465-.39-.96c-.18-.46-.34-.92-.49-1.4a27.984,27.984,0,0,1-.98-4.13c-2.24-13.65,4.64-28.64,16.74-36.47l.5-.32,4.33,2.5,1.72.99c.3-.19.6-.37.91-.54v-.01q.675-.39,1.38-.75a31.3,31.3,0,0,1,3.87-1.69l-.64-3.9-.15-.91.54-.07a1.225,1.225,0,0,1,.19-.02,23.216,23.216,0,0,1,12.84,1.93c.55.25,1.08.53,1.6.83l5.87,3.39,1.58.91c.06.03.12.07.18.1l5.84,3.37c.07.04.13.07.19.11.09.05.17.12.26.17.34.2.66.41.98.63.06.04.13.08.19.12.09.06.16.13.25.19.28.2.56.41.83.63.08.07.17.13.25.2l.15.12c.32.27.62.54.93.83.05.05.12.1.18.16l.03.03c.37.36.73.73,1.07,1.11a.6.6,0,0,1,.08.08c.07.07.12.15.19.23.26.3.52.62.77.94.06.06.12.13.17.19s.08.13.13.19c.31.41.61.83.89,1.26a.865.865,0,0,0,.07.1c0,.01.01.02.01.03.34.52.65,1.06.94,1.6.04.07.08.13.11.19s.05.11.08.17c.33.63.63,1.27.91,1.94l.06.12c.04.11.08.23.12.34.06.15.13.31.19.47.05.14.1.29.15.43.07.18.13.36.19.55.11.31.2.62.3.94.03.12.07.23.11.35a.847.847,0,0,0,.04.17c.13.47.24.95.35,1.44.01.04.02.08.03.13.11.52.21,1.06.29,1.6.03.16.05.32.07.48q.09.585.15,1.17c.01.19.03.38.05.57.03.39.06.79.08,1.18,0,.17.01.34.02.5.02.56.02,1.12.01,1.69Z" transform="translate(-144.8 -65.431)" style="fill: #fff;stroke: #000;stroke-miterlimit: 10" vector-effect="non-scaling-stroke"/>
    <path d="M685.31,292.7,294.08,518.58l-.06-21.76c0-.63.01-1.26.04-1.91.02-.28.04-.56.06-.85.63-9.05,4.46-18.91,10.12-27.23,4.46-6.57,10.06-12.18,16.15-15.69.08-.05,3.54-2.06,9.18-5.79.36-.24.73-.48,1.11-.74.15-.1.31-.2.46-.3.3-.21.61-.41.93-.62a.01.01,0,0,1,.01-.01c.65-.44,1.33-.9,2.03-1.39,3.49-2.39,7.5-5.24,11.87-8.5l.05-.05c1.57-1.17,3.18-2.39,4.83-3.68,3.54-2.75,7.26-5.74,11.07-8.96q6.06-5.13,11.43-10.13c.51-.47,1.02-.95,1.52-1.42,28.37-26.78,42.39-50.47,49.26-66.43a181.513,181.513,0,0,1,24.6-41.07c11.53-14.47,24.89-26.46,38.85-34.52a104.277,104.277,0,0,1,10.2-5.18c.24-.11.47-.21.7-.31a78.313,78.313,0,0,1,15.37-4.86,55.978,55.978,0,0,1,13.24-1.15c11.18.4,20.91,4.57,28.26,12.48,8.07,8.69,25.44,16.63,62.31,5.07.55-.17,1.1-.35,1.65-.53a234.547,234.547,0,0,0,39.39-17.24c.45-.26.9-.51,1.34-.73,13.97-7.26,25.15-.38,25.2,15.86Z" transform="translate(-144.8 -65.431)" style="fill: #fff;stroke: #000;stroke-miterlimit: 10" vector-effect="non-scaling-stroke"/>
    <path d="M324.05,311.69a29.379,29.379,0,0,1-9.45,3.65l-6.02-36.66-3.02-18.39-.25-.14-.31-.18q.315-.2.63-.36v-.01a29.155,29.155,0,0,1,4.84-2.21l2.3,14.03,6.12,37.29Z" transform="translate(-144.8 -65.431)" style="fill: #fff;stroke: #000;stroke-miterlimit: 10" vector-effect="non-scaling-stroke"/>
    <path d="M306.43,312.2a22.68,22.68,0,0,1-10.21-1.13,20.52,20.52,0,0,1-2.79-1.23.031.031,0,0,0-.02-.01c-.21-.11-.41-.22-.61-.34a17.422,17.422,0,0,1-1.47-.94,22.413,22.413,0,0,1-8.01-10.31c-.13-.32-.26-.65-.37-.99-.16-.43-.3-.88-.43-1.33a28.794,28.794,0,0,1-.79-3.47c-2.15-13.03,4.31-27.33,15.71-35l1.05,6.42.17.99.17,1.06.49,2.98.21,1.27L302.62,289Z" transform="translate(-144.8 -65.431)" style="fill: #fff;stroke: #000;stroke-miterlimit: 10" vector-effect="non-scaling-stroke"/>
    <path d="M319.56,307.25l-6.08-37.05-2.15-13.1h-.01l-.14-.9-.61-3.7a22.361,22.361,0,0,1,12.03,1.89,16.075,16.075,0,0,1,1.6.82,2.8,2.8,0,0,1,.32.2h.01a19.461,19.461,0,0,1,2.54,1.8c.01,0,.02.01.03.02a24.2,24.2,0,0,1,8.17,15.02C337.42,285.28,330.97,299.59,319.56,307.25Z" transform="translate(-144.8 -65.431)" style="fill: #fff;stroke: #000;stroke-miterlimit: 10" vector-effect="non-scaling-stroke"/>
  </g>
</svg>
