<svg xmlns="http://www.w3.org/2000/svg" width="30" height="30" viewBox="0 0 30 30">
  <path vector-effect="non-scaling-stroke" d="M24.828,1A4.177,4.177,0,0,1,29,5.172V24.828A4.177,4.177,0,0,1,24.828,29H5.172A4.177,4.177,0,0,1,1,24.828V5.172A4.177,4.177,0,0,1,5.172,1H24.828m0-1H5.172A5.173,5.173,0,0,0,0,5.172V24.828A5.173,5.173,0,0,0,5.172,30H24.828A5.173,5.173,0,0,0,30,24.828V5.172A5.173,5.173,0,0,0,24.828,0Z"/>
  <path vector-effect="non-scaling-stroke" d="M21.687,6A2.315,2.315,0,0,1,24,8.313V21.687A2.315,2.315,0,0,1,21.687,24H8.313A2.315,2.315,0,0,1,6,21.687V8.313A2.315,2.315,0,0,1,8.313,6H21.687m0-1H8.313A3.313,3.313,0,0,0,5,8.313V21.687A3.313,3.313,0,0,0,8.313,25H21.687A3.313,3.313,0,0,0,25,21.687V8.313A3.313,3.313,0,0,0,21.687,5Z"/>
  <path vector-effect="non-scaling-stroke" d="M15,11.009A3.991,3.991,0,1,1,11.009,15,3.991,3.991,0,0,1,15,11.009m0-1A4.991,4.991,0,1,0,19.991,15,5,5,0,0,0,15,10.009Z"/>
  <g>
    <circle vector-effect="non-scaling-stroke" cx="20.5" cy="9.5" r="1"/>
    <path vector-effect="non-scaling-stroke" d="M20.5,9a.5.5,0,1,1-.5.5.5.5,0,0,1,.5-.5m0-1A1.5,1.5,0,1,0,22,9.5,1.5,1.5,0,0,0,20.5,8Z"/>
  </g>
</svg>
