<svg xmlns="http://www.w3.org/2000/svg" width="30" height="30" viewBox="0 0 30 30">
  <defs>
    <style>
      .a {
        fill: #fff;
      }
    </style>
  </defs>
  <path class="a" d="M22.58,1A6.427,6.427,0,0,1,29,7.42V22.58A6.427,6.427,0,0,1,22.58,29H7.42A6.427,6.427,0,0,1,1,22.58V7.42A6.427,6.427,0,0,1,7.42,1H22.58m0-1H7.42A7.42,7.42,0,0,0,0,7.42V22.58A7.42,7.42,0,0,0,7.42,30H22.58A7.42,7.42,0,0,0,30,22.58V7.42A7.42,7.42,0,0,0,22.58,0Z"/>
  <path class="a" d="M15.093,7a8,8,0,1,1-8,8,8,8,0,0,1,8-8m0-1a9,9,0,1,0,9,9,9.011,9.011,0,0,0-9-9Z"/>
  <g>
    <path class="a" d="M24.5,6.506a1,1,0,1,1,1-1A1,1,0,0,1,24.5,6.506Z"/>
    <path class="a" d="M24.5,5a.5.5,0,1,1-.5.5.5.5,0,0,1,.5-.5m0-1A1.5,1.5,0,1,0,26,5.5,1.505,1.505,0,0,0,24.5,4Z"/>
  </g>
</svg>
